<svg width="50" height="50" viewBox="0 0 50 50" fill="none" xmlns="http://www.w3.org/2000/svg">
<path d="M25 4.16663C20.5797 4.16663 16.3405 5.92257 13.2149 9.04818C10.0893 12.1738 8.33331 16.413 8.33331 20.8333C8.33331 32.0833 23.0208 44.7916 23.6458 45.3333C24.0232 45.6561 24.5034 45.8334 25 45.8334C25.4965 45.8334 25.9768 45.6561 26.3541 45.3333C27.0833 44.7916 41.6666 32.0833 41.6666 20.8333C41.6666 16.413 39.9107 12.1738 36.7851 9.04818C33.6595 5.92257 29.4203 4.16663 25 4.16663ZM25 40.9375C20.5625 36.7708 12.5 27.7916 12.5 20.8333C12.5 17.5181 13.8169 14.3387 16.1611 11.9945C18.5054 9.65025 21.6848 8.33329 25 8.33329C28.3152 8.33329 31.4946 9.65025 33.8388 11.9945C36.183 14.3387 37.5 17.5181 37.5 20.8333C37.5 27.7916 29.4375 36.7916 25 40.9375ZM25 12.5C23.3518 12.5 21.7406 12.9887 20.3702 13.9044C18.9998 14.8201 17.9317 16.1215 17.301 17.6443C16.6703 19.167 16.5052 20.8425 16.8268 22.459C17.1483 24.0756 17.942 25.5604 19.1074 26.7258C20.2729 27.8913 21.7577 28.685 23.3742 29.0065C24.9907 29.328 26.6663 29.163 28.189 28.5323C29.7117 27.9016 31.0132 26.8335 31.9289 25.463C32.8446 24.0926 33.3333 22.4815 33.3333 20.8333C33.3333 18.6232 32.4553 16.5035 30.8925 14.9407C29.3297 13.3779 27.2101 12.5 25 12.5ZM25 25C24.1759 25 23.3703 24.7556 22.6851 24.2977C21.9999 23.8399 21.4658 23.1892 21.1505 22.4278C20.8351 21.6664 20.7526 20.8287 20.9134 20.0204C21.0741 19.2122 21.471 18.4697 22.0537 17.887C22.6364 17.3043 23.3788 16.9075 24.1871 16.7467C24.9954 16.5859 25.8331 16.6684 26.5945 16.9838C27.3559 17.2992 28.0066 17.8332 28.4644 18.5184C28.9223 19.2036 29.1666 20.0092 29.1666 20.8333C29.1666 21.9384 28.7277 22.9982 27.9463 23.7796C27.1649 24.561 26.105 25 25 25Z" fill="#89C351"/>
</svg>
