<svg width="50" height="50" viewBox="0 0 50 50" fill="none" xmlns="http://www.w3.org/2000/svg">
<path d="M36.6406 32.7032C36.2051 32.2662 35.6877 31.9194 35.1179 31.6828C34.5481 31.4463 33.9373 31.3245 33.3203 31.3245C32.7034 31.3245 32.0925 31.4463 31.5227 31.6828C30.9529 31.9194 30.4355 32.2662 30 32.7032L27.7344 34.9688C25.1834 33.3498 22.82 31.4528 20.6875 29.3125C18.5518 27.176 16.6552 24.8131 15.0312 22.2657L17.2969 20C17.7339 19.5646 18.0806 19.0471 18.3172 18.4773C18.5538 17.9075 18.6756 17.2967 18.6756 16.6797C18.6756 16.0628 18.5538 15.4519 18.3172 14.8821C18.0806 14.3124 17.7339 13.7949 17.2969 13.3594L12.875 8.95317C12.4457 8.51472 11.9326 8.16706 11.3662 7.93086C10.7998 7.69465 10.1918 7.57471 9.57812 7.57817C8.96013 7.57666 8.34793 7.69736 7.77676 7.93334C7.20559 8.16932 6.68672 8.51591 6.25 8.95317L4.125 11.0625C3.11214 12.1516 2.3562 13.4537 1.91276 14.8733C1.46931 16.2929 1.34962 17.7938 1.5625 19.2657C2.0625 25.125 5.90625 32.1719 11.8281 38.1094C17.75 44.0469 24.875 47.875 30.7344 48.4375C31.1716 48.4609 31.6097 48.4609 32.0469 48.4375C33.3082 48.4905 34.5673 48.2911 35.7506 47.8511C36.9338 47.4111 38.0173 46.7393 38.9375 45.875L41.0469 43.75C41.4841 43.3133 41.8307 42.7945 42.0667 42.2233C42.3027 41.6521 42.4234 41.0399 42.4219 40.4219C42.4253 39.8083 42.3054 39.2002 42.0692 38.6338C41.833 38.0675 41.4853 37.5544 41.0469 37.125L36.6406 32.7032ZM38.8438 41.5469L36.7187 43.6563C35.933 44.3111 35.0158 44.7895 34.0292 45.0591C33.0426 45.3286 32.0095 45.3831 31 45.2188C25.9219 44.7813 19.4531 41.1875 14.1094 35.8438C8.76562 30.5 5.17187 24.0782 4.6875 19C4.519 17.9905 4.57143 16.9565 4.84118 15.9692C5.11093 14.9819 5.59158 14.0649 6.25 13.2813L8.45312 11.1563C8.59912 11.0115 8.77227 10.8969 8.96264 10.8192C9.15302 10.7414 9.35686 10.702 9.5625 10.7032C9.76813 10.702 9.97198 10.7414 10.1624 10.8192C10.3527 10.8969 10.5259 11.0115 10.6719 11.1563L15.0937 15.625C15.3848 15.9178 15.5481 16.3138 15.5481 16.7266C15.5481 17.1394 15.3848 17.5354 15.0937 17.8282L11.9687 20.9532C11.7242 21.1965 11.5671 21.5139 11.5219 21.8559C11.4766 22.1979 11.5459 22.5453 11.7187 22.8438C13.5897 26.0289 15.8636 28.9593 18.4844 31.5625C21.0876 34.1833 24.018 36.4572 27.2031 38.3282C27.5016 38.5011 27.849 38.5703 28.191 38.5251C28.533 38.4798 28.8504 38.3227 29.0938 38.0782L32.2188 34.9532C32.5115 34.6622 32.9075 34.4988 33.3203 34.4988C33.7331 34.4988 34.1291 34.6622 34.4219 34.9532L38.8438 39.375C38.9886 39.521 39.1031 39.6942 39.1809 39.8846C39.2586 40.0749 39.2981 40.2788 39.2969 40.4844C39.2871 40.8835 39.125 41.2636 38.8438 41.5469ZM41.5625 8.42192C39.391 6.24219 36.8096 4.51386 33.9669 3.33658C31.1243 2.15931 28.0768 1.55637 25 1.56255C24.5856 1.56255 24.1882 1.72717 23.8951 2.02019C23.6021 2.31322 23.4375 2.71065 23.4375 3.12505C23.4375 3.53945 23.6021 3.93688 23.8951 4.2299C24.1882 4.52293 24.5856 4.68755 25 4.68755C27.682 4.68745 30.3375 5.21849 32.8132 6.25002C35.2889 7.28155 37.5358 8.79315 39.4242 10.6976C41.3127 12.602 42.8053 14.8616 43.8159 17.3459C44.8265 19.8302 45.3352 22.49 45.3125 25.1719C45.3125 25.5863 45.4771 25.9838 45.7701 26.2768C46.0632 26.5698 46.4606 26.7344 46.875 26.7344C47.2894 26.7344 47.6868 26.5698 47.9799 26.2768C48.2729 25.9838 48.4375 25.5863 48.4375 25.1719C48.4674 22.0624 47.8745 18.9784 46.6938 16.1017C45.513 13.225 43.7683 10.6137 41.5625 8.42192Z" fill="#89C351"/>
<path d="M32.6719 17.3594C33.5586 18.2408 34.2601 19.2906 34.7351 20.4471C35.21 21.6037 35.4489 22.8435 35.4375 24.0938C35.4375 24.5082 35.6021 24.9056 35.8951 25.1986C36.1882 25.4916 36.5856 25.6563 37 25.6563C37.4144 25.6563 37.8118 25.4916 38.1049 25.1986C38.3979 24.9056 38.5625 24.5082 38.5625 24.0938C38.5832 22.4391 38.2751 20.7969 37.6562 19.2622C37.0373 17.7276 36.1198 16.3311 34.957 15.1537C33.7942 13.9764 32.4093 13.0417 30.8824 12.4037C29.3556 11.7658 27.7173 11.4374 26.0625 11.4375C25.6481 11.4375 25.2507 11.6021 24.9576 11.8951C24.6646 12.1882 24.5 12.5856 24.5 13C24.5 13.4144 24.6646 13.8118 24.9576 14.1049C25.2507 14.3979 25.6481 14.5625 26.0625 14.5625C27.2939 14.5718 28.5114 14.8236 29.6454 15.3034C30.7795 15.7833 31.8079 16.482 32.6719 17.3594Z" fill="#89C351"/>
</svg>
