<svg width="45" height="45" viewBox="0 0 45 45" fill="none" xmlns="http://www.w3.org/2000/svg">
<g clip-path="url(#clip0_1_40)">
<path fill-rule="evenodd" clip-rule="evenodd" d="M38.4422 6.53949C34.2123 2.3247 28.5869 0.00236898 22.5937 0C10.2447 0 0.194231 10.0025 0.189289 22.2971C0.187642 26.2271 1.21935 30.0634 3.17984 33.4449L0.00143433 45L11.8783 41.8992C15.1506 43.6756 18.835 44.6118 22.5847 44.6134H22.5939C34.9416 44.6134 44.993 34.6096 44.998 22.3149C45.0004 16.3567 42.6722 10.7543 38.4422 6.53949ZM22.5939 40.8472H22.5863C19.2449 40.846 15.9676 39.9525 13.1086 38.2639L12.4285 37.8622L5.38071 39.7023L7.26194 32.8631L6.81912 32.1619C4.95509 29.211 3.97055 25.8004 3.97201 22.2985C3.9761 12.0797 12.3297 3.76608 22.6013 3.76608C27.575 3.76796 32.2505 5.69832 35.7663 9.2015C39.2821 12.7047 41.2172 17.3612 41.2153 22.3135C41.2111 32.533 32.8575 40.8472 22.5939 40.8472ZM32.8082 26.9666C32.2483 26.6877 29.4961 25.3397 28.9829 25.1538C28.4698 24.9679 28.0967 24.8749 27.7234 25.4327C27.3503 25.9905 26.2774 27.2455 25.9508 27.6173C25.6243 27.9892 25.2978 28.0357 24.7379 27.7568C24.1781 27.4779 22.3744 26.8896 20.2361 24.9914C18.572 23.5141 17.4484 21.6894 17.1219 21.1316C16.7954 20.5738 17.0872 20.2722 17.3674 19.9945C17.6192 19.7449 17.9272 19.3438 18.2071 19.0184C18.487 18.693 18.5803 18.4606 18.7668 18.0888C18.9535 17.717 18.8602 17.3916 18.7202 17.1127C18.5803 16.8338 17.4608 14.0914 16.9942 12.9758C16.5399 11.8894 16.0783 12.0364 15.7347 12.0194C15.4085 12.0032 15.0349 11.9998 14.6618 11.9998C14.2886 11.9998 13.6821 12.1392 13.169 12.697C12.6559 13.2548 11.2098 14.6027 11.2098 17.3451C11.2098 20.0875 13.2156 22.7368 13.4956 23.1087C13.7754 23.4806 17.443 29.1084 23.0586 31.5218C24.3942 32.0958 25.4369 32.4386 26.2499 32.6955C27.591 33.1194 28.8114 33.0596 29.776 32.9162C30.8515 32.7562 33.088 31.5683 33.5545 30.2668C34.021 28.9653 34.021 27.8498 33.8811 27.6174C33.7412 27.385 33.368 27.2455 32.8082 26.9666Z" fill="#89C351"/>
</g>
<defs>
<clipPath id="clip0_1_40">
<rect width="45" height="45" fill="white"/>
</clipPath>
</defs>
</svg>
